<?xml version="1.0" encoding="UTF-8" standalone="no"?>
<!-- Created with Inkscape (http://www.inkscape.org/) -->

<svg
   xmlns:dc="http://purl.org/dc/elements/1.1/"
   xmlns:cc="http://creativecommons.org/ns#"
   xmlns:rdf="http://www.w3.org/1999/02/22-rdf-syntax-ns#"
   xmlns:svg="http://www.w3.org/2000/svg"
   xmlns="http://www.w3.org/2000/svg"
   xmlns:sodipodi="http://sodipodi.sourceforge.net/DTD/sodipodi-0.dtd"
   xmlns:inkscape="http://www.inkscape.org/namespaces/inkscape"
   id="svg2"
   version="1.1"
   inkscape:version="0.48.4 r9939"
   width="360"
   height="360"
   viewBox="0 0 360 360"
   sodipodi:docname="brand.svg">
  <metadata
     id="metadata8">
    <rdf:RDF>
      <cc:Work
         rdf:about="">
        <dc:format>image/svg+xml</dc:format>
        <dc:type
           rdf:resource="http://purl.org/dc/dcmitype/StillImage" />
        <dc:title />
      </cc:Work>
    </rdf:RDF>
  </metadata>
  <defs
     id="defs6" />
  <sodipodi:namedview
     pagecolor="#616161"
     bordercolor="#666666"
     borderopacity="1"
     objecttolerance="10"
     gridtolerance="10"
     guidetolerance="10"
     inkscape:pageopacity="0.22352941"
     inkscape:pageshadow="2"
     inkscape:window-width="1596"
     inkscape:window-height="861"
     id="namedview4"
     showgrid="false"
     inkscape:zoom="1.4142136"
     inkscape:cx="232.62665"
     inkscape:cy="148.21351"
     inkscape:window-x="0"
     inkscape:window-y="18"
     inkscape:window-maximized="0"
     inkscape:current-layer="svg2" />
  <path
     style="fill:#000000"
     d="M 8.0795691,359.23489 C 4.9169449,357.77483 1.7653149,353.26781 0.5038059,348.40105 0.0529649,346.66173 -0.0016051,328.38682 3.4895396e-5,179.68897 0.0011349,63.45 0.1076559,12.53089 0.3512109,11.618388 1.6045769,6.9214338 3.7906339,3.198597 6.4993026,1.148207 L 8.016152,0 179.73435,0 l 171.71817,0 1.48289,0.932313 c 2.55663,1.607378 4.59753,4.6763782 6.12687,9.213322 L 360,12.927502 360,179.34863 c 0,161.49733 -0.0182,166.48891 -0.617,168.71209 -1.43265,5.31942 -4.41778,9.69147 -7.62943,11.17417 L 350.09624,360 179.91657,360 9.7368979,360 8.0795691,359.23489 z M 349.92398,347.24759 c 0.50601,-0.35719 1.27174,-1.3513 1.7016,-2.20913 l 0.78153,-1.55964 0,-81.32872 0,-81.32872 -172.40164,-0.0822 -172.4016557,-0.0821 -0.1807547,0.73668 c -0.099368,0.40518 -0.139412,37.04007 -0.088914,81.41085 0.086273,75.73409 0.1269113,80.75101 0.6643005,81.92892 0.3148406,0.6901 1.0361867,1.6842 1.6030011,2.20913 l 1.0305748,0.95437 169.185938,0 c 168.21583,0 169.19122,-0.003 170.10599,-0.64948 z m -329.78813,-45.33315 0,-33.87333 30.619136,0.0115 c 33.790959,0.0125 34.018657,0.0245 37.719219,1.97991 4.767628,2.51922 6.935947,7.26679 6.924514,15.16132 -0.01199,8.29758 -2.18707,12.92722 -7.184124,15.29152 l -2.156456,1.02032 1.224005,0.41716 c 3.815293,1.30033 6.498146,4.8825 7.632776,10.19138 0.612306,2.86499 0.620008,9.75496 0.01409,12.58906 -0.899856,4.20874 -3.346206,7.69615 -6.534162,9.3148 -3.562228,1.80868 -2.75264,1.76973 -36.801372,1.76973 l -31.457621,0 0,-33.87333 z m 58.773136,17.66751 c 1.389664,-0.71245 1.969947,-2.05878 1.969947,-4.57064 0,-2.37807 -0.514357,-3.92001 -1.639502,-4.91491 -0.715129,-0.63234 -1.330064,-0.66011 -18.119926,-0.81819 l -17.379685,-0.16364 0,-7.03649 0,-7.03649 17.181456,-0.16364 c 19.084211,-0.18176 18.306447,-0.0857 19.413115,-2.39772 0.697038,-1.45623 0.726375,-5.14087 0.05128,-6.43519 -1.080974,-2.07234 0.209959,-1.96728 -24.174504,-1.96728 l -22.210004,0 0,18.00032 0,18.00032 21.969728,0 c 18.991941,0 22.100996,-0.0673 22.93814,-0.49645 z m 26.485684,-4.65819 c 0.11543,-19.69422 0.16063,-21.02915 0.80617,-23.80951 1.66421,-7.16771 3.84969,-11.40612 8.02076,-15.55501 2.92289,-2.90737 5.60527,-4.57916 9.4899,-5.91457 4.29468,-1.47638 6.7327,-1.59959 31.69325,-1.60163 l 23.52144,-0.002 0,33.87333 0,33.87333 -6.93263,0 -6.93264,0 0,-13.09337 0,-13.09336 -23.02625,0.084 -23.02625,0.084 -0.0863,13.00932 -0.0863,13.00932 -6.7817,0 -6.78169,0 0.12228,-20.864 z m 59.66625,-25.4459 0,-5.4001 -14.60805,0.002 c -8.03443,10e-4 -15.94038,0.154 -17.56878,0.33893 -6.78244,0.77026 -9.54724,2.28333 -11.64748,6.3742 -0.79656,1.55157 -1.41224,3.63873 -1.15003,3.89867 0.103,0.10211 10.2644,0.18571 22.58083,0.18571 l 22.39351,7e-5 0,-5.4001 z m 24.09916,38.30946 0,-8.02402 24.67688,-0.0879 24.67687,-0.0879 1.59611,-0.77902 c 1.00179,-0.48896 2.00846,-1.34194 2.70361,-2.29095 1.08738,-1.48441 2.46786,-4.98861 2.46786,-6.26434 0,-0.64031 -0.31933,-0.64769 -28.06067,-0.64769 l -28.06066,0 0.002,-8.59106 c 0.003,-14.84417 1.60313,-20.76341 7.11684,-26.33274 3.56355,-3.5995 8.14321,-5.57105 14.66949,-6.31522 1.55578,-0.17741 12.69798,-0.32118 25.007,-0.32267 l 22.20069,-0.002 0,8.01027 0,8.01029 -24.67688,0.0899 -24.67688,0.0899 -1.36756,0.72509 c -0.75216,0.3988 -1.89586,1.33696 -2.54156,2.08482 -1.21671,1.40919 -2.52832,4.65346 -2.52832,6.2538 l 0,0.91829 28.09184,0 28.09183,0 -0.14187,10.39109 c -0.13589,9.9528 -0.17867,10.52914 -1.01394,13.66388 -2.40381,9.02134 -7.43185,14.2698 -15.908,16.60546 -2.60539,0.71795 -2.97599,0.72911 -27.48294,0.82762 l -24.84194,0.0998 0,-8.02398 z m 78.98712,-12.37264 c 0.12431,-19.22825 0.17056,-20.54355 0.82306,-23.40638 0.93134,-4.08615 1.5749,-5.97533 3.0918,-9.07601 3.15444,-6.44794 8.27528,-11.06829 14.72427,-13.28519 4.27675,-1.47017 6.80099,-1.60202 30.71002,-1.60406 l 22.53106,-0.002 0,8.00805 0,8.00806 -23.85156,0.0964 c -21.75136,0.0879 -24.0029,0.14722 -25.57016,0.67322 -3.28231,1.10157 -6.10255,3.97724 -7.35313,7.49761 l -0.61644,1.73527 24.23896,0.0839 24.23894,0.0839 0,7.68893 0,7.68894 -24.59434,0 -24.59435,0 0,5.07282 0,5.07281 29.05104,0 29.05104,0 0,8.01833 0,8.01832 -36.00596,0 -36.00594,0 0.13169,-20.37309 z M 20.705305,256.38726 c -0.131632,-0.1305 -0.23933,-9.49107 -0.23933,-20.80127 l 0,-20.564 6.928751,0 6.928761,0 0.08638,12.68204 0.08638,12.68205 16.506273,0 c 16.463664,0 16.51206,-0.002 18.75063,-0.76834 2.78978,-0.95507 5.736051,-3.51578 7.006088,-6.08926 1.822699,-3.69333 1.90391,-4.36414 2.052191,-16.95192 l 0.137817,-11.70021 -29.247531,0 -29.247541,0 0.08836,-7.9365 0.08836,-7.9365 36.083999,-0.0832 36.083999,-0.0832 -0.120408,21.0291 -0.120397,21.02909 -0.87645,3.54444 c -2.474004,10.00512 -7.903411,16.79454 -16.033939,20.05028 -4.681817,1.87477 -4.483191,1.86176 -30.595785,2.00373 -13.259081,0.0721 -24.21512,0.0243 -24.346752,-0.10614 z m 81.756375,-0.27836 c -0.10443,-0.26994 -0.12141,-9.14628 -0.0376,-19.7252 0.12715,-16.05348 0.24386,-19.74858 0.70567,-22.34355 2.30174,-12.93365 8.8026,-20.94784 19.37487,-23.88513 4.00723,-1.11333 10.04055,-1.34079 32.98267,-1.24343 l 21.62322,0.0917 0,33.70969 0,33.70969 -6.93264,0 -6.93263,0 -0.0863,-13.00932 -0.0864,-13.00932 -23.26626,0 -23.26627,0 -0.0863,13.00932 -0.0863,13.00932 -6.85788,0.0885 c -5.84675,0.0755 -6.8859,0.0161 -7.04786,-0.40231 z m 60.61849,-46.02235 0,-5.26271 -16.58881,0.14199 c -14.21521,0.12166 -16.94307,0.22315 -19.06474,0.70926 -5.09537,1.1674 -7.08094,2.61437 -8.94348,6.51747 -1.67757,3.51543 -4.15698,3.15671 21.81837,3.15671 l 22.77866,0 0,-5.26272 z m 54.4707,20.62186 0,-25.89125 -6.51998,0.11142 -6.51998,0.11141 -1.8069,1.01604 c -2.80206,1.57562 -3.79384,3.26869 -4.82081,8.22958 -0.15184,0.7335 -0.17781,0.73638 -6.62912,0.73638 l -6.4767,0 0.22671,-2.48024 c 0.3267,-3.57421 1.67038,-8.40363 3.18814,-11.45882 2.33056,-4.69129 5.86859,-8.05539 10.48719,-9.97163 5.00613,-2.07703 4.85101,-2.06727 33.2319,-2.0886 l 25.74979,-0.0193 0,7.85468 0,7.85469 -13.12048,0.0855 -13.1205,0.0855 -0.0845,25.76943 -0.0845,25.76942 -6.85011,0.0885 -6.8501,0.0885 0,-25.89124 z m 47.53806,6.4352 c 0,-11.95147 0.13572,-20.4435 0.35184,-22.01612 1.94139,-14.12629 9.42448,-22.90191 21.76657,-25.52623 2.5739,-0.5473 4.85458,-0.59671 27.56547,-0.59728 l 24.75941,-6.6e-4 0,33.70969 0,33.70969 -6.93263,0 -6.93264,0 -0.0863,-13.00932 -0.0863,-13.00932 -23.26629,0 -23.26627,0 -0.0863,13.00932 -0.0863,13.00932 -6.8501,0.0885 -6.8501,0.0885 0,-19.45603 z m 60.41296,-27.05706 0,-5.26271 -16.5888,0.14199 c -17.98153,0.1539 -19.51505,0.29031 -23.25127,2.06826 -2.56852,1.22228 -4.88413,4.25451 -5.53773,7.25152 l -0.23197,1.06366 22.80488,0 22.80489,0 0,-5.26272 z m -288.529642,-75.73872 0,-2.12731 -8.088073,0 -8.088074,0 0,2.12731 0,2.12731 8.088074,0 8.088073,0 0,-2.12731 z m 20.137653,0 0,-2.12731 -8.088074,0 -8.088074,0 0,2.12731 0,2.12731 8.088074,0 8.088074,0 0,-2.12731 z m 20.137652,0 0,-2.12731 -8.088073,0 -8.088074,0 0,2.12731 0,2.12731 8.088074,0 8.088073,0 0,-2.12731 z m 20.401004,-0.0818 0.09827,-2.04549 -8.268894,0 -8.268882,0 0,1.90912 c 0,1.05002 0.101568,2.00986 0.225816,2.133 0.124194,0.12312 3.800966,0.18448 8.170604,0.13636 l 7.944799,-0.0875 0.09827,-2.04549 z m 20.204423,0.0761 0,-2.13303 -8.12949,0.0875 -8.12949,0.0875 0.0208,1.88186 c 0.0114,1.03501 0.03,1.95549 0.0414,2.04549 0.0113,0.09 3.66026,0.16364 8.1087,0.16364 l 8.08808,0 0,-2.13303 z m 20.13765,0.005 0,-2.12731 -8.08807,0 -8.08807,0 0,2.12731 0,2.12731 8.08807,0 8.08807,0 0,-2.12731 z m 20.13766,0 0,-2.12731 -8.08808,0 -8.08807,0 0,2.12731 0,2.12731 8.08807,0 8.08808,0 0,-2.12731 z m 20.13765,0 0,-2.12731 -8.08807,0 -8.08808,0 0,2.12731 0,2.12731 8.08808,0 8.08807,0 0,-2.12731 z m 20.13765,0 0,-2.12731 -8.08807,0 -8.08808,0 0,2.12731 0,2.12731 8.08808,0 8.08807,0 0,-2.12731 z m 20.13765,0 0,-2.12731 -8.08807,0 -8.08807,0 0,2.12731 0,2.12731 8.08807,0 8.08807,0 0,-2.12731 z m 20.13766,0 0,-2.12731 -8.08808,0 -8.08807,0 0,2.12731 0,2.12731 8.08807,0 8.08808,0 0,-2.12731 z m 20.13765,0 0,-2.12731 -8.08807,0 -8.08808,0 0,2.12731 0,2.12731 8.08808,0 8.08807,0 0,-2.12731 z m 20.13765,0 0,-2.12731 -8.08807,0 -8.08808,0 0,1.90913 c 0,1.05001 0.099,2.0073 0.22009,2.12731 0.12104,0.11999 3.76068,0.21817 8.08807,0.21817 l 7.86799,0 0,-2.12731 z m 20.13765,0 0,-2.12731 -7.92301,0 -7.92301,0 0,2.12731 0,2.12731 7.92301,0 7.92301,0 0,-2.12731 z m 20.401,-0.0818 0.0983,-2.04549 -8.10381,0 -8.10384,0 0,2.13313 0,2.13313 8.00555,-0.0876 8.00554,-0.0876 0.0983,-2.04549 z m 19.87431,0.0818 0,-2.12731 -7.92301,0 -7.92301,0 0,2.12731 0,2.12731 7.92301,0 7.92301,0 0,-2.12731 z M 67.862329,125.97829 c 13.669779,-1.88489 19.263744,-12.17033 21.257734,-39.08584 0.186697,-2.520045 0.340051,-4.986907 0.340788,-5.481916 l 0.0011,-0.900016 -11.059202,0 -11.059203,0 0,8.345603 0,8.345596 3.776955,0 c 2.077325,0 3.853202,0.122304 3.946396,0.271783 0.230967,0.370501 -0.530808,3.11759 -1.447457,5.21977 -0.982508,2.25318 -3.451736,4.47761 -5.707638,5.14176 -1.397971,0.41157 -4.40483,0.49416 -17.992376,0.49416 l -16.313908,0 0.156292,-13.827521 c 0.172656,-15.274824 0.324161,-16.633958 2.254548,-20.224509 1.199247,-2.230599 2.909285,-3.649581 5.409722,-4.488941 1.479501,-0.496645 4.073164,-0.565614 24.679496,-0.656303 l 23.026249,-0.101347 0,-8.840251 0,-8.840252 -23.191312,0.11194 c -23.033568,0.111177 -23.208138,0.117013 -25.66491,0.857699 -8.186825,2.468226 -13.64305,8.34353 -16.778263,18.066954 -1.392832,4.319673 -2.039284,8.345177 -2.387863,14.869387 -0.343617,6.431395 -0.421691,40.529944 -0.09354,40.855264 0.379512,0.37624 44.052215,0.25222 46.846155,-0.13303 z m 42.806991,-14.13086 0.0859,-14.482073 21.12803,0 21.12803,0 0.0859,14.482073 0.0859,14.48208 6.26895,0 6.26895,0 0,-37.489807 0,-37.489822 -23.02625,0.112158 c -22.86014,0.111351 -23.0441,0.117537 -25.49984,0.857797 -8.07497,2.434112 -13.41614,8.130253 -16.64737,17.753693 -2.295417,6.836358 -2.286041,6.709363 -2.418719,32.773741 l -0.119527,23.48224 6.286946,0 6.28694,0 0.0859,-14.48208 z m 0.91128,-31.463612 c 0,-1.155228 1.41438,-4.780579 2.46669,-6.322672 1.40525,-2.059281 3.14029,-3.125903 6.6402,-4.082091 2.4671,-0.674019 3.44477,-0.721049 17.55846,-0.844651 l 14.9459,-0.13089 -0.0902,5.835322 -0.0902,5.835322 -20.71538,0.08433 c -17.59173,0.07157 -20.71541,0.01506 -20.71541,-0.374613 z m 76.17826,17.226998 0.0843,-28.555046 18.90847,0 c 20.5821,0 21.11371,0.04102 23.71509,1.828199 0.75759,0.520482 1.87964,1.696176 2.49343,2.612632 0.77538,1.157748 3.96038,9.449393 10.43572,27.167779 l 9.31973,25.50149 7.01196,0.0884 c 3.85658,0.0486 7.01197,0.0236 7.01197,-0.0555 0,-0.59347 -20.45151,-58.812412 -21.31606,-60.680049 -3.13159,-6.764935 -7.77838,-11.264218 -13.67724,-13.243097 -2.1319,-0.71518 -2.323,-0.720504 -29.4637,-0.820444 l -27.31788,-0.100583 0,37.494589 0,37.494594 6.35492,-0.0889 6.35491,-0.0889 0.0844,-28.555053 z m 32.43301,3.845524 0,-24.873164 -6.43744,0 -6.43745,0 0,24.654974 c 0,13.56024 0.099,24.75317 0.22008,24.87317 0.12105,0.12 3.0179,0.21819 6.43745,0.21819 l 6.21736,0 0,-24.87317 z m 118.84516,15.87301 0,-9.00016 -26.57509,0 -26.5751,0 0,-5.56374 0,-5.563733 22.61359,0 22.61359,0 0,-8.345596 0,-8.345603 -22.32021,0 -22.3202,0 0.21414,-1.227294 c 0.3888,-2.22832 2.40003,-5.823093 4.10555,-7.338109 3.19728,-2.840134 1.95048,-2.707717 26.53799,-2.818282 l 21.70574,-0.09764 0,-8.823255 0,-8.823244 -20.55031,0.0065 c -11.87883,0.0033 -21.51119,0.144177 -22.8275,0.332799 -12.28346,1.760224 -20.44388,12.560056 -22.29941,29.511982 -0.20675,1.888845 -0.34787,11.680576 -0.34787,24.136825 l 0,20.95872 33.01255,0 33.01254,0 0,-9.00016 z M 36.972248,44.34624 l 0,-2.127311 -8.088073,0 -8.088074,0 0,2.127311 0,2.12731 8.088074,0 8.088073,0 0,-2.12731 z m 20.137653,0 0,-2.127311 -8.088074,0 -8.088074,0 0,2.127311 0,2.12731 8.088074,0 8.088074,0 0,-2.12731 z m 20.137652,0 0,-2.127311 -8.088073,0 -8.088074,0 0,2.127311 0,2.12731 8.088074,0 8.088073,0 0,-2.12731 z m 20.401004,-0.08182 0.09827,-2.045491 -8.268894,0 -8.268882,0 0,1.909125 c 0,1.050019 0.101568,2.009872 0.225816,2.132994 0.124194,0.123133 3.800966,0.184498 8.170604,0.136366 l 7.944788,-0.08749 0.09827,-2.045491 z m 20.204423,0.08182 0,-2.127311 -8.05875,0 -8.05875,0 -0.11185,1.992003 c -0.0615,1.095598 -0.05,2.052887 0.0257,2.12731 0.0756,0.0744 3.75241,0.135308 8.1706,0.135308 l 8.03303,0 0,-2.12731 z m 20.13765,0 0,-2.127311 -8.08807,0 -8.08807,0 0,2.127311 0,2.12731 8.08807,0 8.08807,0 0,-2.12731 z m 20.07088,-0.08182 0.0983,-2.045491 -8.10382,0 -8.10383,0 0,2.133136 0,2.133126 8.00554,-0.0876 8.00554,-0.0876 0.0983,-2.04549 z m 20.20443,0.08182 0,-2.127311 -8.08807,0 -8.08808,0 0,2.127311 0,2.12731 8.08808,0 8.08807,0 0,-2.12731 z m 20.13765,0 0,-2.127311 -8.08807,0 -8.08808,0 0,2.127311 0,2.12731 8.08808,0 8.08807,0 0,-2.12731 z m 20.13765,0 0,-2.127311 -8.08807,0 -8.08807,0 0,2.127311 0,2.12731 8.08807,0 8.08807,0 0,-2.12731 z m 20.13766,0 0,-2.127311 -8.08808,0 -8.08807,0 0,2.127311 0,2.12731 8.08807,0 8.08808,0 0,-2.12731 z m 20.13765,0 0,-2.127311 -8.08807,0 -8.08808,0 0,2.127311 0,2.12731 8.08808,0 8.08807,0 0,-2.12731 z m 20.13765,0 0,-2.127311 -8.08807,0 -8.08808,0 0,1.909125 c 0,1.050019 0.099,2.007309 0.22009,2.127311 0.12104,0.120002 3.76068,0.218185 8.08807,0.218185 l 7.86799,0 0,-2.12731 z m 20.13765,0 0,-2.127311 -7.92301,0 -7.92301,0 0,2.127311 0,2.12731 7.92301,0 7.92301,0 0,-2.12731 z m 20.401,-0.08182 0.0983,-2.045491 -8.10381,0 -8.10384,0 0,2.133136 0,2.133126 8.00555,-0.0876 8.00554,-0.0876 0.0983,-2.04549 z m 19.87431,0.08182 0,-2.127311 -7.92301,0 -7.92301,0 0,2.127311 0,2.12731 7.92301,0 7.92301,0 0,-2.12731 z"
     id="path3338"
     inkscape:connector-curvature="0" />
</svg>
